<svg xmlns="http://www.w3.org/2000/svg" viewBox="0 0 1024 768" style="font-family: monospace;"><g transform="translate(212, 84) rotate(0) scale(1 1)"><text text-anchor="start" font-size="16px" style="user-select: none;" transform="translate(0, -10) rotate(0) scale(1 1)">cubic-easing</text><g transform="translate(0, 0) rotate(0) scale(1 1)"><rect stroke="#aaa" fill="none" x="0" y="0" width="600" height="600" transform="translate(0, 0) rotate(0) scale(1 1)"></rect><line stroke="#aaa" x1="60" y1="0" x2="60" y2="600" opacity="0.25" stroke-dasharray="2 3" transform="translate(0, 0) rotate(0) scale(1 1)"></line><line stroke="#aaa" x1="60" y1="0" x2="60" y2="600" opacity="0.25" stroke-dasharray="2 3" transform="translate(0, 0) rotate(0) scale(1 1)"></line><line stroke="#aaa" x1="120" y1="0" x2="120" y2="600" opacity="0.25" stroke-dasharray="2 3" transform="translate(0, 0) rotate(0) scale(1 1)"></line><line stroke="#aaa" x1="120" y1="0" x2="120" y2="600" opacity="0.25" stroke-dasharray="2 3" transform="translate(0, 0) rotate(0) scale(1 1)"></line><line stroke="#aaa" x1="180" y1="0" x2="180" y2="600" opacity="0.25" stroke-dasharray="2 3" transform="translate(0, 0) rotate(0) scale(1 1)"></line><line stroke="#aaa" x1="180" y1="0" x2="180" y2="600" opacity="0.25" stroke-dasharray="2 3" transform="translate(0, 0) rotate(0) scale(1 1)"></line><line stroke="#aaa" x1="240" y1="0" x2="240" y2="600" opacity="0.25" stroke-dasharray="2 3" transform="translate(0, 0) rotate(0) scale(1 1)"></line><line stroke="#aaa" x1="240" y1="0" x2="240" y2="600" opacity="0.25" stroke-dasharray="2 3" transform="translate(0, 0) rotate(0) scale(1 1)"></line><line stroke="#aaa" x1="300" y1="0" x2="300" y2="600" opacity="0.25" stroke-dasharray="2 3" transform="translate(0, 0) rotate(0) scale(1 1)"></line><line stroke="#aaa" x1="300" y1="0" x2="300" y2="600" opacity="0.25" stroke-dasharray="2 3" transform="translate(0, 0) rotate(0) scale(1 1)"></line><line stroke="#aaa" x1="360" y1="0" x2="360" y2="600" opacity="0.25" stroke-dasharray="2 3" transform="translate(0, 0) rotate(0) scale(1 1)"></line><line stroke="#aaa" x1="360" y1="0" x2="360" y2="600" opacity="0.25" stroke-dasharray="2 3" transform="translate(0, 0) rotate(0) scale(1 1)"></line><line stroke="#aaa" x1="420" y1="0" x2="420" y2="600" opacity="0.25" stroke-dasharray="2 3" transform="translate(0, 0) rotate(0) scale(1 1)"></line><line stroke="#aaa" x1="420" y1="0" x2="420" y2="600" opacity="0.25" stroke-dasharray="2 3" transform="translate(0, 0) rotate(0) scale(1 1)"></line><line stroke="#aaa" x1="480" y1="0" x2="480" y2="600" opacity="0.25" stroke-dasharray="2 3" transform="translate(0, 0) rotate(0) scale(1 1)"></line><line stroke="#aaa" x1="480" y1="0" x2="480" y2="600" opacity="0.25" stroke-dasharray="2 3" transform="translate(0, 0) rotate(0) scale(1 1)"></line><line stroke="#aaa" x1="540" y1="0" x2="540" y2="600" opacity="0.25" stroke-dasharray="2 3" transform="translate(0, 0) rotate(0) scale(1 1)"></line><line stroke="#aaa" x1="540" y1="0" x2="540" y2="600" opacity="0.25" stroke-dasharray="2 3" transform="translate(0, 0) rotate(0) scale(1 1)"></line><line x1="200" y1="0" x2="200" y2="600" fill="none" stroke="#aaa" transform="translate(0, 0) rotate(0) scale(1 1)"></line><text text-anchor="middle" font-size="16px" fill="#aaa" style="user-select: none;" transform="translate(200, 620) rotate(0) scale(1 1)">1/3</text><line x1="400" y1="0" x2="400" y2="600" fill="none" stroke="#aaa" transform="translate(0, 0) rotate(0) scale(1 1)"></line><text text-anchor="middle" font-size="16px" fill="#aaa" style="user-select: none;" transform="translate(400, 620) rotate(0) scale(1 1)">2/3</text><line x1="0" y1="400.00000000000006" x2="600" y2="400.00000000000006" fill="none" stroke="#aaa" transform="translate(0, 0) rotate(0) scale(1 1)"></line><text text-anchor="start" font-size="16px" fill="#aaa" alignment-baseline="middle" style="user-select: none;" transform="translate(610, 400) rotate(0) scale(1 1)">1/3</text><line x1="0" y1="200.00000000000003" x2="600" y2="200.00000000000003" fill="none" stroke="#aaa" transform="translate(0, 0) rotate(0) scale(1 1)"></line><text text-anchor="start" font-size="16px" fill="#aaa" alignment-baseline="middle" style="user-select: none;" transform="translate(610, 200) rotate(0) scale(1 1)">2/3</text><line x1="0" y1="480" x2="600" y2="480" fill="none" stroke="#fc0" transform="translate(0, 0) rotate(0) scale(1 1)"></line><text text-anchor="start" font-size="16px" fill="#fc0" alignment-baseline="middle" style="user-select: none;" transform="translate(610, 480) rotate(0) scale(1 1)">1</text><line x1="0" y1="360" x2="600" y2="360" fill="none" stroke="#fc0" transform="translate(0, 0) rotate(0) scale(1 1)"></line><text text-anchor="start" font-size="16px" fill="#fc0" alignment-baseline="middle" style="user-select: none;" transform="translate(610, 360) rotate(0) scale(1 1)">2</text><line x1="0" y1="239.99999999999994" x2="600" y2="239.99999999999994" fill="none" stroke="#fc0" transform="translate(0, 0) rotate(0) scale(1 1)"></line><text text-anchor="start" font-size="16px" fill="#fc0" alignment-baseline="middle" style="user-select: none;" transform="translate(610, 240) rotate(0) scale(1 1)">3</text></g><circle fill="#aaa" r="4.5" transform="translate(60, 534.747) rotate(0) scale(1 1)"></circle><circle fill="#aaa" r="4.5" transform="translate(120, 453.754) rotate(0) scale(1 1)"></circle><circle fill="#aaa" r="4.5" transform="translate(180, 338.815) rotate(0) scale(1 1)"></circle><circle fill="#aaa" r="4.5" transform="translate(240, 169.306) rotate(0) scale(1 1)"></circle><circle fill="#aaa" r="4.5" transform="translate(300, 88.303) rotate(0) scale(1 1)"></circle><circle fill="#aaa" r="4.5" transform="translate(360, 52.954) rotate(0) scale(1 1)"></circle><circle fill="#aaa" r="4.5" transform="translate(420, 32.006) rotate(0) scale(1 1)"></circle><circle fill="#aaa" r="4.5" transform="translate(480, 17.881) rotate(0) scale(1 1)"></circle><circle fill="#aaa" r="4.5" transform="translate(540, 7.674) rotate(0) scale(1 1)"></circle><polygon fill="#fc04" points="0,480 1.8,479.5 3.6,478.9 5.4,478.4 7.1,477.8 8.9,477.3 10.6,476.7 12.4,476.2 14.1,475.6 15.8,475 17.5,474.5 19.2,473.9 20.9,473.3 22.5,472.7 24.2,472.1 25.8,471.5 27.5,470.9 29.1,470.3 30.7,469.7 32.3,469.1 33.9,468.5 35.5,467.9 37.1,467.2 38.6,466.6 40.2,466 41.7,465.3 43.3,464.7 44.8,464.1 46.3,463.4 47.8,462.7 49.3,462.1 50.8,461.4 52.3,460.7 53.7,460 55.2,459.4 56.6,458.7 58.1,458 59.5,457.3 60.9,456.6 62.3,455.9 63.7,455.1 65.1,454.4 66.5,453.7 67.9,453 69.2,452.2 70.6,451.5 71.9,450.7 73.3,450 74.6,449.2 75.9,448.5 77.2,447.7 78.5,446.9 79.8,446.1 81.1,445.3 82.4,444.5 83.6,443.7 84.9,442.9 86.1,442.1 87.4,441.3 88.6,440.5 89.8,439.6 91,438.8 92.2,437.9 93.4,437.1 94.6,436.2 95.8,435.4 97,434.5 98.1,433.6 99.3,432.7 100.4,431.8 101.6,430.9 102.7,430 103.8,429.1 104.9,428.2 106,427.3 107.1,426.3 108.2,425.4 109.3,424.4 110.4,423.5 111.4,422.5 112.5,421.5 113.5,420.6 114.6,419.6 115.6,418.6 116.7,417.6 117.7,416.6 118.7,415.6 119.7,414.5 120.7,413.5 121.7,412.5 122.7,411.4 123.6,410.4 124.6,409.3 125.6,408.2 126.5,407.2 127.5,406.1 128.4,405 129.3,403.9 130.3,402.8 131.2,401.7 132.1,400.5 133,399.4 133.9,398.3 134.8,397.1 135.7,396 136.6,394.8 137.4,393.6 138.3,392.5 139.2,391.3 140,390.1 140.8,388.9 141.7,387.6 142.5,386.4 143.3,385.2 144.2,384 145,382.7 145.8,381.5 146.6,380.2 147.4,378.9 148.2,377.6 149,376.4 149.7,375.1 150.5,373.8 151.3,372.4 152,371.1 152.8,369.8 153.5,368.5 154.3,367.1 155,365.8 155.7,364.4 156.5,363 157.2,361.7 157.9,360.3 158.6,358.9 159.3,357.5 160,356.1 160.7,354.7 161.4,353.3 162.1,351.8 162.7,350.4 163.4,348.9 164.1,347.5 164.7,346 165.4,344.6 166,343.1 166.7,341.6 167.3,340.2 168,338.7 168.6,337.2 169.2,335.7 169.8,334.2 170.5,332.7 171.1,331.1 171.7,329.6 172.3,328.1 172.9,326.6 173.5,325 174.1,323.5 174.6,321.9 175.2,320.4 175.8,318.8 176.4,317.3 176.9,315.7 177.5,314.2 178.1,312.6 178.6,311 179.2,309.5 179.7,307.9 180.2,306.3 180.8,304.8 181.3,303.2 181.8,301.6 182.4,300 182.9,298.5 183.4,296.9 183.9,295.3 184.4,293.8 184.9,292.2 185.5,290.6 186,289.1 186.4,287.5 186.9,286 187.4,284.4 187.9,282.9 188.4,281.4 188.9,279.8 189.4,278.3 189.8,276.8 190.3,275.3 190.8,273.8 191.2,272.3 191.7,270.8 192.1,269.3 192.6,267.9 193.1,266.4 193.5,265 193.9,263.6 194.4,262.2 194.8,260.8 195.3,259.4 195.7,258 196.1,256.7 196.6,255.3 197,254 197.4,252.7 197.8,251.4 198.3,250.2 198.7,248.9 199.1,247.7 199.5,246.5 199.9,245.3 200.3,244.2 200.7,243 201.1,241.9 201.5,240.8 201.9,239.8 202.3,238.8 202.7,237.8 203.1,236.8 203.5,235.8 203.9,234.9 204.3,234 204.7,233.2 205,232.4 205.4,231.6 205.8,230.8 206.2,230.1 206.6,229.4 206.9,228.8 207.3,228.2 207.7,227.6 208.1,227 208.4,226.5 208.8,226.1 209.2,225.6 209.5,225.3 209.9,224.9 210.3,224.6 210.6,224.3 211,224.1 211.3,223.9 211.7,223.8 212.1,223.7 212.4,223.6 212.8,223.6 213.1,223.7 213.5,223.7 213.8,223.9 214.2,224 214.6,224.2 214.9,224.5 215.3,224.8 215.6,225.1 216,225.5 216.3,226 216.7,226.4 217,227 217.4,227.5 217.7,228.2 218.1,228.8 218.4,229.5 218.8,230.3 219.1,231.1 219.5,231.9 219.8,232.8 220.1,233.7 220.5,234.7 220.8,235.7 221.2,236.7 221.5,237.8 221.9,239 222.2,240.1 222.6,241.4 222.9,242.6 223.3,243.9 223.6,245.3 224,246.6 224.3,248 224.7,249.5 225.1,251 225.4,252.5 225.8,254 226.1,255.6 226.5,257.2 226.8,258.9 227.2,260.6 227.5,262.3 227.9,264 228.3,265.8 228.6,267.6 229,269.4 229.4,271.3 229.7,273.2 230.1,275.1 230.5,277 230.8,279 231.2,280.9 231.6,282.9 231.9,284.9 232.3,287 232.7,289 233.1,291.1 233.4,293.2 233.8,295.3 234.2,297.4 234.6,299.5 235,301.7 235.4,303.8 235.8,306 236.1,308.2 236.5,310.4 236.9,312.5 237.3,314.7 237.7,317 238.1,319.2 238.5,321.4 238.9,323.6 239.3,325.8 239.8,328.1 240.2,330.3 240.6,332.5 241,334.8 241.4,337 241.8,339.3 242.3,341.5 242.7,343.7 243.1,346 243.5,348.2 244,350.4 244.4,352.6 244.9,354.9 245.3,357.1 245.7,359.3 246.2,361.5 246.6,363.7 247.1,365.9 247.6,368 248,370.2 248.5,372.4 248.9,374.5 249.4,376.7 249.9,378.8 250.4,380.9 250.8,383 251.3,385.2 251.8,387.2 252.3,389.3 252.8,391.4 253.3,393.5 253.8,395.5 254.3,397.5 254.8,399.6 255.3,401.6 255.8,403.6 256.3,405.5 256.9,407.5 257.4,409.5 257.9,411.4 258.4,413.3 259,415.2 259.5,417.1 260.1,419 260.6,420.9 261.2,422.7 261.7,424.6 262.3,426.4 262.9,428.2 263.4,430 264,431.8 264.6,433.6 265.2,435.3 265.8,437 266.3,438.8 266.9,440.5 267.5,442.2 268.2,443.8 268.8,445.5 269.4,447.1 270,448.8 270.6,450.4 271.3,452 271.9,453.6 272.5,455.1 273.2,456.7 273.8,458.2 274.5,459.8 275.1,461.3 275.8,462.8 276.5,464.2 277.1,465.7 277.8,467.2 278.5,468.6 279.2,470 279.9,471.4 280.6,472.8 281.3,474.2 282,475.6 282.7,476.9 283.5,478.2 284.2,479.6 284.9,480.9 285.7,482.2 286.4,483.4 287.2,484.7 287.9,486 288.7,487.2 289.5,488.4 290.2,489.7 291,490.9 291.8,492 292.6,493.2 293.4,494.4 294.2,495.5 295,496.7 295.9,497.8 296.7,498.9 297.5,500 298.3,501.1 299.2,502.2 300,503.3 300.9,504.3 301.8,505.4 302.6,506.4 303.5,507.4 304.4,508.4 305.3,509.4 306.2,510.4 307.1,511.4 308,512.4 308.9,513.3 309.8,514.3 310.8,515.2 311.7,516.1 312.7,517 313.6,517.9 314.6,518.8 315.5,519.7 316.5,520.6 317.5,521.4 318.5,522.3 319.5,523.1 320.5,524 321.5,524.8 322.5,525.6 323.5,526.4 324.6,527.2 325.6,528 326.7,528.8 327.7,529.6 328.8,530.3 329.9,531.1 330.9,531.8 332,532.6 333.1,533.3 334.2,534 335.3,534.7 336.5,535.5 337.6,536.2 338.7,536.8 339.9,537.5 341,538.2 342.2,538.9 343.4,539.5 344.5,540.2 345.7,540.8 346.9,541.5 348.1,542.1 349.3,542.7 350.5,543.3 351.8,544 353,544.6 354.3,545.2 355.5,545.7 356.8,546.3 358,546.9 359.3,547.5 360.6,548 361.9,548.6 363.2,549.2 364.5,549.7 365.9,550.3 367.2,550.8 368.5,551.3 369.9,551.8 371.3,552.4 372.6,552.9 374,553.4 375.4,553.9 376.8,554.4 378.2,554.9 379.6,555.3 381,555.8 382.5,556.3 383.9,556.8 385.4,557.2 386.8,557.7 388.3,558.2 389.8,558.6 391.3,559 392.8,559.5 394.3,559.9 395.8,560.4 397.4,560.8 398.9,561.2 400.5,561.6 402,562 403.6,562.4 405.2,562.8 406.8,563.2 408.4,563.6 410,564 411.6,564.4 413.3,564.8 414.9,565.2 416.6,565.5 418.2,565.9 419.9,566.3 421.6,566.6 423.3,567 425,567.4 426.7,567.7 428.5,568.1 430.2,568.4 432,568.7 433.7,569.1 435.5,569.4 437.3,569.7 439.1,570.1 440.9,570.4 442.7,570.7 444.5,571 446.4,571.3 448.2,571.7 450.1,572 452,572.3 453.8,572.6 455.7,572.9 457.7,573.2 459.6,573.5 461.5,573.7 463.4,574 465.4,574.3 467.4,574.6 469.3,574.9 471.3,575.1 473.3,575.4 475.4,575.7 477.4,575.9 479.4,576.2 481.5,576.5 483.5,576.7 485.6,577 487.7,577.2 489.8,577.5 491.9,577.7 494,578 496.1,578.2 498.3,578.5 500.4,578.7 502.6,578.9 504.8,579.2 507,579.4 509.2,579.6 511.4,579.8 513.6,580.1 515.9,580.3 518.1,580.5 520.4,580.7 522.7,580.9 525,581.2 527.3,581.4 529.6,581.6 532,581.8 534.3,582 536.7,582.2 539,582.4 541.4,582.6 543.8,582.8 546.2,583 548.7,583.2 551.1,583.4 553.6,583.6 556,583.7 558.5,583.9 561,584.1 563.5,584.3 566,584.5 568.5,584.7 571.1,584.8 573.7,585 576.2,585.2 578.8,585.4 581.4,585.5 584,585.7 586.7,585.9 589.3,586 591.9,586.2 594.6,586.3 597.3,586.5 600,586.7 600,600 0,600" transform="translate(0, 0) rotate(0) scale(1 1)"></polygon><polyline stroke="#c9f" fill="none" points="0,600 360,240 60,60 600,0" transform="translate(0, 0) rotate(0) scale(1 1)"></polyline><polyline stroke="#f42" stroke-dasharray="2,3" fill="none" points="0,600 1,598.2 2,596.4 3,594.6 4,592.9 5,591.1 6,589.4 7,587.6 8,585.9 9,584.2 10,582.5 11,580.8 12,579.1 13,577.5 14,575.8 15,574.2 16,572.5 17,570.9 18,569.3 19,567.7 20,566.1 21,564.5 22,562.9 23,561.4 24,559.8 25,558.3 26,556.7 27,555.2 28,553.7 29,552.2 30.1,550.7 31.1,549.2 32.1,547.7 33.1,546.3 34.1,544.8 35.1,543.4 36.1,541.9 37.1,540.5 38.1,539.1 39.1,537.7 40.1,536.3 41.1,534.9 42.1,533.5 43.1,532.1 44.1,530.8 45.1,529.4 46.1,528.1 47.1,526.7 48.1,525.4 49.1,524.1 50.1,522.8 51.1,521.5 52.1,520.2 53.1,518.9 54.1,517.6 55.1,516.4 56.1,515.1 57.1,513.9 58.1,512.6 59.1,511.4 60.1,510.2 61.1,509 62.1,507.8 63.1,506.6 64.1,505.4 65.1,504.2 66.1,503 67.1,501.9 68.1,500.7 69.1,499.6 70.1,498.4 71.1,497.3 72.1,496.2 73.1,495.1 74.1,494 75.1,492.9 76.1,491.8 77.1,490.7 78.1,489.6 79.1,488.6 80.1,487.5 81.1,486.5 82.1,485.4 83.1,484.4 84.1,483.3 85.1,482.3 86.1,481.3 87.1,480.3 88.1,479.3 89.1,478.3 90.2,477.3 91.2,476.4 92.2,475.4 93.2,474.4 94.2,473.5 95.2,472.5 96.2,471.6 97.2,470.7 98.2,469.7 99.2,468.8 100.2,467.9 101.2,467 102.2,466.1 103.2,465.2 104.2,464.3 105.2,463.4 106.2,462.6 107.2,461.7 108.2,460.8 109.2,460 110.2,459.2 111.2,458.3 112.2,457.5 113.2,456.7 114.2,455.8 115.2,455 116.2,454.2 117.2,453.4 118.2,452.6 119.2,451.8 120.2,451 121.2,450.3 122.2,449.5 123.2,448.7 124.2,448 125.2,447.2 126.2,446.5 127.2,445.7 128.2,445 129.2,444.3 130.2,443.5 131.2,442.8 132.2,442.1 133.2,441.4 134.2,440.7 135.2,440 136.2,439.3 137.2,438.6 138.2,437.9 139.2,437.3 140.2,436.6 141.2,435.9 142.2,435.3 143.2,434.6 144.2,434 145.2,433.3 146.2,432.7 147.2,432 148.2,431.4 149.2,430.8 150.3,430.2 151.3,429.5 152.3,428.9 153.3,428.3 154.3,427.7 155.3,427.1 156.3,426.5 157.3,425.9 158.3,425.4 159.3,424.8 160.3,424.2 161.3,423.6 162.3,423.1 163.3,422.5 164.3,421.9 165.3,421.4 166.3,420.8 167.3,420.3 168.3,419.8 169.3,419.2 170.3,418.7 171.3,418.2 172.3,417.6 173.3,417.1 174.3,416.6 175.3,416.1 176.3,415.6 177.3,415.1 178.3,414.5 179.3,414 180.3,413.6 181.3,413.1 182.3,412.6 183.3,412.1 184.3,411.6 185.3,411.1 186.3,410.6 187.3,410.2 188.3,409.7 189.3,409.2 190.3,408.8 191.3,408.3 192.3,407.9 193.3,407.4 194.3,406.9 195.3,406.5 196.3,406.1 197.3,405.6 198.3,405.2 199.3,404.7 200.3,404.3 201.3,403.9 202.3,403.4 203.3,403 204.3,402.6 205.3,402.2 206.3,401.7 207.3,401.3 208.3,400.9 209.3,400.5 210.4,400.1 211.4,399.7 212.4,399.3 213.4,398.9 214.4,398.5 215.4,398.1 216.4,397.7 217.4,397.3 218.4,396.9 219.4,396.5 220.4,396.1 221.4,395.7 222.4,395.3 223.4,395 224.4,394.6 225.4,394.2 226.4,393.8 227.4,393.4 228.4,393.1 229.4,392.7 230.4,392.3 231.4,391.9 232.4,391.6 233.4,391.2 234.4,390.8 235.4,390.5 236.4,390.1 237.4,389.7 238.4,389.4 239.4,389 240.4,388.7 241.4,388.3 242.4,387.9 243.4,387.6 244.4,387.2 245.4,386.9 246.4,386.5 247.4,386.2 248.4,385.8 249.4,385.4 250.4,385.1 251.4,384.7 252.4,384.4 253.4,384 254.4,383.7 255.4,383.3 256.4,383 257.4,382.6 258.4,382.3 259.4,381.9 260.4,381.6 261.4,381.2 262.4,380.9 263.4,380.5 264.4,380.2 265.4,379.9 266.4,379.5 267.4,379.2 268.4,378.8 269.4,378.5 270.5,378.1 271.5,377.8 272.5,377.4 273.5,377.1 274.5,376.7 275.5,376.4 276.5,376 277.5,375.7 278.5,375.3 279.5,374.9 280.5,374.6 281.5,374.2 282.5,373.9 283.5,373.5 284.5,373.2 285.5,372.8 286.5,372.5 287.5,372.1 288.5,371.7 289.5,371.4 290.5,371 291.5,370.6 292.5,370.3 293.5,369.9 294.5,369.5 295.5,369.2 296.5,368.8 297.5,368.4 298.5,368.1 299.5,367.7 300.5,367.3 301.5,366.9 302.5,366.6 303.5,366.2 304.5,365.8 305.5,365.4 306.5,365 307.5,364.6 308.5,364.2 309.5,363.9 310.5,363.5 311.5,363.1 312.5,362.7 313.5,362.3 314.5,361.9 315.5,361.5 316.5,361.1 317.5,360.7 318.5,360.2 319.5,359.8 320.5,359.4 321.5,359 322.5,358.6 323.5,358.2 324.5,357.7 325.5,357.3 326.5,356.9 327.5,356.5 328.5,356 329.5,355.6 330.6,355.1 331.6,354.7 332.6,354.3 333.6,353.8 334.6,353.4 335.6,352.9 336.6,352.4 337.6,352 338.6,351.5 339.6,351.1 340.6,350.6 341.6,350.1 342.6,349.6 343.6,349.2 344.6,348.7 345.6,348.2 346.6,347.7 347.6,347.2 348.6,346.7 349.6,346.2 350.6,345.7 351.6,345.2 352.6,344.7 353.6,344.2 354.6,343.7 355.6,343.1 356.6,342.6 357.6,342.1 358.6,341.6 359.6,341 360.6,340.5 361.6,339.9 362.6,339.4 363.6,338.8 364.6,338.3 365.6,337.7 366.6,337.1 367.6,336.6 368.6,336 369.6,335.4 370.6,334.8 371.6,334.2 372.6,333.7 373.6,333.1 374.6,332.5 375.6,331.8 376.6,331.2 377.6,330.6 378.6,330 379.6,329.4 380.6,328.7 381.6,328.1 382.6,327.5 383.6,326.8 384.6,326.2 385.6,325.5 386.6,324.9 387.6,324.2 388.6,323.5 389.6,322.9 390.7,322.2 391.7,321.5 392.7,320.8 393.7,320.1 394.7,319.4 395.7,318.7 396.7,318 397.7,317.3 398.7,316.5 399.7,315.8 400.7,315.1 401.7,314.3 402.7,313.6 403.7,312.8 404.7,312.1 405.7,311.3 406.7,310.5 407.7,309.8 408.7,309 409.7,308.2 410.7,307.4 411.7,306.6 412.7,305.8 413.7,305 414.7,304.1 415.7,303.3 416.7,302.5 417.7,301.7 418.7,300.8 419.7,300 420.7,299.1 421.7,298.2 422.7,297.4 423.7,296.5 424.7,295.6 425.7,294.7 426.7,293.8 427.7,292.9 428.7,292 429.7,291.1 430.7,290.2 431.7,289.2 432.7,288.3 433.7,287.3 434.7,286.4 435.7,285.4 436.7,284.5 437.7,283.5 438.7,282.5 439.7,281.5 440.7,280.5 441.7,279.5 442.7,278.5 443.7,277.5 444.7,276.5 445.7,275.4 446.7,274.4 447.7,273.3 448.7,272.3 449.7,271.2 450.8,270.1 451.8,269.1 452.8,268 453.8,266.9 454.8,265.8 455.8,264.7 456.8,263.5 457.8,262.4 458.8,261.3 459.8,260.1 460.8,259 461.8,257.8 462.8,256.6 463.8,255.5 464.8,254.3 465.8,253.1 466.8,251.9 467.8,250.7 468.8,249.5 469.8,248.2 470.8,247 471.8,245.7 472.8,244.5 473.8,243.2 474.8,242 475.8,240.7 476.8,239.4 477.8,238.1 478.8,236.8 479.8,235.5 480.8,234.1 481.8,232.8 482.8,231.5 483.8,230.1 484.8,228.7 485.8,227.4 486.8,226 487.8,224.6 488.8,223.2 489.8,221.8 490.8,220.4 491.8,219 492.8,217.5 493.8,216.1 494.8,214.6 495.8,213.2 496.8,211.7 497.8,210.2 498.8,208.7 499.8,207.2 500.8,205.7 501.8,204.2 502.8,202.6 503.8,201.1 504.8,199.5 505.8,198 506.8,196.4 507.8,194.8 508.8,193.2 509.8,191.6 510.9,190 511.9,188.4 512.9,186.7 513.9,185.1 514.9,183.4 515.9,181.8 516.9,180.1 517.9,178.4 518.9,176.7 519.9,175 520.9,173.3 521.9,171.5 522.9,169.8 523.9,168 524.9,166.3 525.9,164.5 526.9,162.7 527.9,160.9 528.9,159.1 529.9,157.3 530.9,155.5 531.9,153.6 532.9,151.8 533.9,149.9 534.9,148 535.9,146.2 536.9,144.3 537.9,142.3 538.9,140.4 539.9,138.5 540.9,136.6 541.9,134.6 542.9,132.6 543.9,130.7 544.9,128.7 545.9,126.7 546.9,124.6 547.9,122.6 548.9,120.6 549.9,118.5 550.9,116.5 551.9,114.4 552.9,112.3 553.9,110.2 554.9,108.1 555.9,106 556.9,103.9 557.9,101.7 558.9,99.6 559.9,97.4 560.9,95.2 561.9,93 562.9,90.8 563.9,88.6 564.9,86.4 565.9,84.1 566.9,81.9 567.9,79.6 568.9,77.3 569.9,75 571,72.7 572,70.4 573,68 574,65.7 575,63.3 576,61 577,58.6 578,56.2 579,53.8 580,51.3 581,48.9 582,46.4 583,44 584,41.5 585,39 586,36.5 587,34 588,31.5 589,28.9 590,26.3 591,23.8 592,21.2 593,18.6 594,16 595,13.3 596,10.7 597,8.1 598,5.4 599,2.7 600,0" transform="translate(0, 0) rotate(0) scale(1 1)"></polyline><text text-anchor="middle" font-size="16px" fill="#f42" style="user-select: none;" transform="translate(60, 498.3) rotate(0) scale(1 1)">x</text><polyline stroke="#2c4" stroke-dasharray="2,3" fill="none" points="0,600 1,598.2 2,596.4 3,594.6 4,592.8 5,591 6,589.2 7,587.5 8,585.7 9,583.9 10,582.1 11,580.3 12,578.6 13,576.8 14,575.1 15,573.3 16,571.5 17,569.8 18,568 19,566.3 20,564.5 21,562.8 22,561.1 23,559.3 24,557.6 25,555.9 26,554.1 27,552.4 28,550.7 29,549 30.1,547.3 31.1,545.5 32.1,543.8 33.1,542.1 34.1,540.4 35.1,538.7 36.1,537 37.1,535.3 38.1,533.6 39.1,532 40.1,530.3 41.1,528.6 42.1,526.9 43.1,525.2 44.1,523.6 45.1,521.9 46.1,520.2 47.1,518.6 48.1,516.9 49.1,515.2 50.1,513.6 51.1,511.9 52.1,510.3 53.1,508.6 54.1,507 55.1,505.3 56.1,503.7 57.1,502.1 58.1,500.4 59.1,498.8 60.1,497.2 61.1,495.6 62.1,493.9 63.1,492.3 64.1,490.7 65.1,489.1 66.1,487.5 67.1,485.9 68.1,484.3 69.1,482.7 70.1,481.1 71.1,479.5 72.1,477.9 73.1,476.3 74.1,474.7 75.1,473.1 76.1,471.5 77.1,470 78.1,468.4 79.1,466.8 80.1,465.2 81.1,463.7 82.1,462.1 83.1,460.6 84.1,459 85.1,457.4 86.1,455.9 87.1,454.3 88.1,452.8 89.1,451.3 90.2,449.7 91.2,448.2 92.2,446.6 93.2,445.1 94.2,443.6 95.2,442.1 96.2,440.5 97.2,439 98.2,437.5 99.2,436 100.2,434.5 101.2,433 102.2,431.5 103.2,430 104.2,428.5 105.2,427 106.2,425.5 107.2,424 108.2,422.5 109.2,421 110.2,419.5 111.2,418 112.2,416.6 113.2,415.1 114.2,413.6 115.2,412.1 116.2,410.7 117.2,409.2 118.2,407.7 119.2,406.3 120.2,404.8 121.2,403.4 122.2,401.9 123.2,400.5 124.2,399 125.2,397.6 126.2,396.2 127.2,394.7 128.2,393.3 129.2,391.9 130.2,390.4 131.2,389 132.2,387.6 133.2,386.2 134.2,384.7 135.2,383.3 136.2,381.9 137.2,380.5 138.2,379.1 139.2,377.7 140.2,376.3 141.2,374.9 142.2,373.5 143.2,372.1 144.2,370.7 145.2,369.4 146.2,368 147.2,366.6 148.2,365.2 149.2,363.8 150.3,362.5 151.3,361.1 152.3,359.7 153.3,358.4 154.3,357 155.3,355.7 156.3,354.3 157.3,352.9 158.3,351.6 159.3,350.2 160.3,348.9 161.3,347.6 162.3,346.2 163.3,344.9 164.3,343.6 165.3,342.2 166.3,340.9 167.3,339.6 168.3,338.2 169.3,336.9 170.3,335.6 171.3,334.3 172.3,333 173.3,331.7 174.3,330.4 175.3,329.1 176.3,327.8 177.3,326.5 178.3,325.2 179.3,323.9 180.3,322.6 181.3,321.3 182.3,320 183.3,318.7 184.3,317.5 185.3,316.2 186.3,314.9 187.3,313.6 188.3,312.4 189.3,311.1 190.3,309.8 191.3,308.6 192.3,307.3 193.3,306.1 194.3,304.8 195.3,303.6 196.3,302.3 197.3,301.1 198.3,299.8 199.3,298.6 200.3,297.4 201.3,296.1 202.3,294.9 203.3,293.7 204.3,292.4 205.3,291.2 206.3,290 207.3,288.8 208.3,287.6 209.3,286.4 210.4,285.2 211.4,283.9 212.4,282.7 213.4,281.5 214.4,280.3 215.4,279.1 216.4,278 217.4,276.8 218.4,275.6 219.4,274.4 220.4,273.2 221.4,272 222.4,270.9 223.4,269.7 224.4,268.5 225.4,267.3 226.4,266.2 227.4,265 228.4,263.8 229.4,262.7 230.4,261.5 231.4,260.4 232.4,259.2 233.4,258.1 234.4,256.9 235.4,255.8 236.4,254.6 237.4,253.5 238.4,252.4 239.4,251.2 240.4,250.1 241.4,249 242.4,247.9 243.4,246.7 244.4,245.6 245.4,244.5 246.4,243.4 247.4,242.3 248.4,241.2 249.4,240.1 250.4,238.9 251.4,237.8 252.4,236.7 253.4,235.7 254.4,234.6 255.4,233.5 256.4,232.4 257.4,231.3 258.4,230.2 259.4,229.1 260.4,228.1 261.4,227 262.4,225.9 263.4,224.8 264.4,223.8 265.4,222.7 266.4,221.6 267.4,220.6 268.4,219.5 269.4,218.5 270.5,217.4 271.5,216.4 272.5,215.3 273.5,214.3 274.5,213.2 275.5,212.2 276.5,211.1 277.5,210.1 278.5,209.1 279.5,208.1 280.5,207 281.5,206 282.5,205 283.5,204 284.5,202.9 285.5,201.9 286.5,200.9 287.5,199.9 288.5,198.9 289.5,197.9 290.5,196.9 291.5,195.9 292.5,194.9 293.5,193.9 294.5,192.9 295.5,191.9 296.5,190.9 297.5,189.9 298.5,189 299.5,188 300.5,187 301.5,186 302.5,185.1 303.5,184.1 304.5,183.1 305.5,182.2 306.5,181.2 307.5,180.2 308.5,179.3 309.5,178.3 310.5,177.4 311.5,176.4 312.5,175.5 313.5,174.5 314.5,173.6 315.5,172.7 316.5,171.7 317.5,170.8 318.5,169.9 319.5,168.9 320.5,168 321.5,167.1 322.5,166.2 323.5,165.2 324.5,164.3 325.5,163.4 326.5,162.5 327.5,161.6 328.5,160.7 329.5,159.8 330.6,158.9 331.6,158 332.6,157.1 333.6,156.2 334.6,155.3 335.6,154.4 336.6,153.5 337.6,152.6 338.6,151.7 339.6,150.9 340.6,150 341.6,149.1 342.6,148.2 343.6,147.4 344.6,146.5 345.6,145.6 346.6,144.8 347.6,143.9 348.6,143.1 349.6,142.2 350.6,141.3 351.6,140.5 352.6,139.6 353.6,138.8 354.6,138 355.6,137.1 356.6,136.3 357.6,135.4 358.6,134.6 359.6,133.8 360.6,132.9 361.6,132.1 362.6,131.3 363.6,130.5 364.6,129.7 365.6,128.8 366.6,128 367.6,127.2 368.6,126.4 369.6,125.6 370.6,124.8 371.6,124 372.6,123.2 373.6,122.4 374.6,121.6 375.6,120.8 376.6,120 377.6,119.2 378.6,118.4 379.6,117.6 380.6,116.9 381.6,116.1 382.6,115.3 383.6,114.5 384.6,113.8 385.6,113 386.6,112.2 387.6,111.5 388.6,110.7 389.6,109.9 390.7,109.2 391.7,108.4 392.7,107.7 393.7,106.9 394.7,106.2 395.7,105.4 396.7,104.7 397.7,103.9 398.7,103.2 399.7,102.5 400.7,101.7 401.7,101 402.7,100.3 403.7,99.5 404.7,98.8 405.7,98.1 406.7,97.4 407.7,96.7 408.7,95.9 409.7,95.2 410.7,94.5 411.7,93.8 412.7,93.1 413.7,92.4 414.7,91.7 415.7,91 416.7,90.3 417.7,89.6 418.7,88.9 419.7,88.2 420.7,87.5 421.7,86.9 422.7,86.2 423.7,85.5 424.7,84.8 425.7,84.1 426.7,83.5 427.7,82.8 428.7,82.1 429.7,81.5 430.7,80.8 431.7,80.1 432.7,79.5 433.7,78.8 434.7,78.2 435.7,77.5 436.7,76.8 437.7,76.2 438.7,75.6 439.7,74.9 440.7,74.3 441.7,73.6 442.7,73 443.7,72.4 444.7,71.7 445.7,71.1 446.7,70.5 447.7,69.8 448.7,69.2 449.7,68.6 450.8,68 451.8,67.4 452.8,66.7 453.8,66.1 454.8,65.5 455.8,64.9 456.8,64.3 457.8,63.7 458.8,63.1 459.8,62.5 460.8,61.9 461.8,61.3 462.8,60.7 463.8,60.1 464.8,59.5 465.8,59 466.8,58.4 467.8,57.8 468.8,57.2 469.8,56.6 470.8,56.1 471.8,55.5 472.8,54.9 473.8,54.4 474.8,53.8 475.8,53.2 476.8,52.7 477.8,52.1 478.8,51.5 479.8,51 480.8,50.4 481.8,49.9 482.8,49.3 483.8,48.8 484.8,48.3 485.8,47.7 486.8,47.2 487.8,46.6 488.8,46.1 489.8,45.6 490.8,45 491.8,44.5 492.8,44 493.8,43.5 494.8,42.9 495.8,42.4 496.8,41.9 497.8,41.4 498.8,40.9 499.8,40.4 500.8,39.9 501.8,39.3 502.8,38.8 503.8,38.3 504.8,37.8 505.8,37.3 506.8,36.8 507.8,36.4 508.8,35.9 509.8,35.4 510.9,34.9 511.9,34.4 512.9,33.9 513.9,33.4 514.9,33 515.9,32.5 516.9,32 517.9,31.5 518.9,31.1 519.9,30.6 520.9,30.1 521.9,29.7 522.9,29.2 523.9,28.8 524.9,28.3 525.9,27.8 526.9,27.4 527.9,26.9 528.9,26.5 529.9,26 530.9,25.6 531.9,25.2 532.9,24.7 533.9,24.3 534.9,23.8 535.9,23.4 536.9,23 537.9,22.6 538.9,22.1 539.9,21.7 540.9,21.3 541.9,20.9 542.9,20.4 543.9,20 544.9,19.6 545.9,19.2 546.9,18.8 547.9,18.4 548.9,18 549.9,17.6 550.9,17.2 551.9,16.8 552.9,16.4 553.9,16 554.9,15.6 555.9,15.2 556.9,14.8 557.9,14.4 558.9,14 559.9,13.6 560.9,13.3 561.9,12.9 562.9,12.5 563.9,12.1 564.9,11.8 565.9,11.4 566.9,11 567.9,10.7 568.9,10.3 569.9,9.9 571,9.6 572,9.2 573,8.9 574,8.5 575,8.1 576,7.8 577,7.4 578,7.1 579,6.8 580,6.4 581,6.1 582,5.7 583,5.4 584,5.1 585,4.7 586,4.4 587,4.1 588,3.8 589,3.4 590,3.1 591,2.8 592,2.5 593,2.2 594,1.8 595,1.5 596,1.2 597,0.9 598,0.6 599,0.3 600,0" transform="translate(0, 0) rotate(0) scale(1 1)"></polyline><text text-anchor="middle" font-size="16px" fill="#2c4" style="user-select: none;" transform="translate(120, 393.12) rotate(0) scale(1 1)">y</text><polyline stroke="#03f3" stroke-width="20" fill="none" transform="translate(0, 0) rotate(0) scale(1 1)"></polyline><polyline stroke="green" stroke-width="1" fill="none" points="0,600 1,599 2,598 3,597 4,596 5,595 6,593.9 7,592.9 8,591.9 9,590.9 10,589.9 11,588.8 12,587.8 13,586.8 14,585.7 15,584.7 16,583.6 17,582.6 18,581.5 19,580.5 20,579.4 21,578.4 22,577.3 23,576.3 24,575.2 25,574.1 26,573.1 27,572 28,570.9 29,569.8 30.1,568.7 31.1,567.7 32.1,566.6 33.1,565.5 34.1,564.4 35.1,563.3 36.1,562.2 37.1,561.1 38.1,560 39.1,558.8 40.1,557.7 41.1,556.6 42.1,555.5 43.1,554.4 44.1,553.2 45.1,552.1 46.1,551 47.1,549.8 48.1,548.7 49.1,547.5 50.1,546.4 51.1,545.2 52.1,544.1 53.1,542.9 54.1,541.7 55.1,540.6 56.1,539.4 57.1,538.2 58.1,537 59.1,535.8 60.1,534.6 61.1,533.4 62.1,532.2 63.1,531 64.1,529.8 65.1,528.6 66.1,527.4 67.1,526.2 68.1,524.9 69.1,523.7 70.1,522.5 71.1,521.2 72.1,520 73.1,518.7 74.1,517.5 75.1,516.2 76.1,515 77.1,513.7 78.1,512.4 79.1,511.2 80.1,509.9 81.1,508.6 82.1,507.3 83.1,506 84.1,504.7 85.1,503.4 86.1,502.1 87.1,500.7 88.1,499.4 89.1,498.1 90.2,496.7 91.2,495.4 92.2,494 93.2,492.7 94.2,491.3 95.2,490 96.2,488.6 97.2,487.2 98.2,485.8 99.2,484.4 100.2,483 101.2,481.6 102.2,480.2 103.2,478.8 104.2,477.4 105.2,475.9 106.2,474.5 107.2,473.1 108.2,471.6 109.2,470.1 110.2,468.7 111.2,467.2 112.2,465.7 113.2,464.2 114.2,462.7 115.2,461.2 116.2,459.7 117.2,458.2 118.2,456.6 119.2,455.1 120.2,453.6 121.2,452 122.2,450.4 123.2,448.9 124.2,447.3 125.2,445.7 126.2,444.1 127.2,442.5 128.2,440.8 129.2,439.2 130.2,437.6 131.2,435.9 132.2,434.3 133.2,432.6 134.2,430.9 135.2,429.2 136.2,427.5 137.2,425.8 138.2,424.1 139.2,422.3 140.2,420.6 141.2,418.8 142.2,417.1 143.2,415.3 144.2,413.5 145.2,411.7 146.2,409.8 147.2,408 148.2,406.1 149.2,404.3 150.3,402.4 151.3,400.5 152.3,398.6 153.3,396.7 154.3,394.7 155.3,392.8 156.3,390.8 157.3,388.8 158.3,386.8 159.3,384.8 160.3,382.8 161.3,380.8 162.3,378.7 163.3,376.6 164.3,374.5 165.3,372.4 166.3,370.2 167.3,368.1 168.3,365.9 169.3,363.7 170.3,361.5 171.3,359.3 172.3,357 173.3,354.7 174.3,352.4 175.3,350.1 176.3,347.7 177.3,345.4 178.3,343 179.3,340.6 180.3,338.1 181.3,335.7 182.3,333.2 183.3,330.6 184.3,328.1 185.3,325.5 186.3,323 187.3,320.3 188.3,317.7 189.3,315 190.3,312.3 191.3,309.6 192.3,306.8 193.3,304.1 194.3,301.3 195.3,298.4 196.3,295.6 197.3,292.7 198.3,289.8 199.3,286.8 200.3,283.9 201.3,280.9 202.3,277.9 203.3,274.9 204.3,271.8 205.3,268.8 206.3,265.7 207.3,262.6 208.3,259.5 209.3,256.4 210.4,253.2 211.4,250.1 212.4,246.9 213.4,243.8 214.4,240.7 215.4,237.5 216.4,234.4 217.4,231.3 218.4,228.2 219.4,225.1 220.4,222 221.4,219 222.4,216 223.4,213 224.4,210 225.4,207.1 226.4,204.2 227.4,201.4 228.4,198.6 229.4,195.8 230.4,193.1 231.4,190.4 232.4,187.8 233.4,185.2 234.4,182.7 235.4,180.2 236.4,177.7 237.4,175.3 238.4,173 239.4,170.7 240.4,168.4 241.4,166.2 242.4,164 243.4,161.9 244.4,159.8 245.4,157.7 246.4,155.7 247.4,153.8 248.4,151.9 249.4,150 250.4,148.1 251.4,146.3 252.4,144.6 253.4,142.8 254.4,141.1 255.4,139.4 256.4,137.8 257.4,136.2 258.4,134.6 259.4,133.1 260.4,131.6 261.4,130.1 262.4,128.6 263.4,127.2 264.4,125.8 265.4,124.4 266.4,123.1 267.4,121.7 268.4,120.4 269.4,119.1 270.5,117.9 271.5,116.6 272.5,115.4 273.5,114.2 274.5,113 275.5,111.9 276.5,110.7 277.5,109.6 278.5,108.5 279.5,107.4 280.5,106.3 281.5,105.3 282.5,104.2 283.5,103.2 284.5,102.2 285.5,101.2 286.5,100.2 287.5,99.3 288.5,98.3 289.5,97.4 290.5,96.4 291.5,95.5 292.5,94.6 293.5,93.7 294.5,92.9 295.5,92 296.5,91.2 297.5,90.3 298.5,89.5 299.5,88.7 300.5,87.9 301.5,87.1 302.5,86.3 303.5,85.5 304.5,84.7 305.5,84 306.5,83.2 307.5,82.5 308.5,81.7 309.5,81 310.5,80.3 311.5,79.6 312.5,78.9 313.5,78.2 314.5,77.5 315.5,76.9 316.5,76.2 317.5,75.5 318.5,74.9 319.5,74.2 320.5,73.6 321.5,73 322.5,72.3 323.5,71.7 324.5,71.1 325.5,70.5 326.5,69.9 327.5,69.3 328.5,68.7 329.5,68.2 330.6,67.6 331.6,67 332.6,66.5 333.6,65.9 334.6,65.3 335.6,64.8 336.6,64.3 337.6,63.7 338.6,63.2 339.6,62.7 340.6,62.1 341.6,61.6 342.6,61.1 343.6,60.6 344.6,60.1 345.6,59.6 346.6,59.1 347.6,58.6 348.6,58.1 349.6,57.7 350.6,57.2 351.6,56.7 352.6,56.3 353.6,55.8 354.6,55.3 355.6,54.9 356.6,54.4 357.6,54 358.6,53.5 359.6,53.1 360.6,52.7 361.6,52.2 362.6,51.8 363.6,51.4 364.6,51 365.6,50.5 366.6,50.1 367.6,49.7 368.6,49.3 369.6,48.9 370.6,48.5 371.6,48.1 372.6,47.7 373.6,47.3 374.6,46.9 375.6,46.5 376.6,46.2 377.6,45.8 378.6,45.4 379.6,45 380.6,44.7 381.6,44.3 382.6,43.9 383.6,43.6 384.6,43.2 385.6,42.8 386.6,42.5 387.6,42.1 388.6,41.8 389.6,41.4 390.7,41.1 391.7,40.8 392.7,40.4 393.7,40.1 394.7,39.7 395.7,39.4 396.7,39.1 397.7,38.8 398.7,38.4 399.7,38.1 400.7,37.8 401.7,37.5 402.7,37.1 403.7,36.8 404.7,36.5 405.7,36.2 406.7,35.9 407.7,35.6 408.7,35.3 409.7,35 410.7,34.7 411.7,34.4 412.7,34.1 413.7,33.8 414.7,33.5 415.7,33.2 416.7,32.9 417.7,32.6 418.7,32.4 419.7,32.1 420.7,31.8 421.7,31.5 422.7,31.2 423.7,31 424.7,30.7 425.7,30.4 426.7,30.1 427.7,29.9 428.7,29.6 429.7,29.3 430.7,29.1 431.7,28.8 432.7,28.6 433.7,28.3 434.7,28 435.7,27.8 436.7,27.5 437.7,27.3 438.7,27 439.7,26.8 440.7,26.5 441.7,26.3 442.7,26 443.7,25.8 444.7,25.6 445.7,25.3 446.7,25.1 447.7,24.8 448.7,24.6 449.7,24.4 450.8,24.1 451.8,23.9 452.8,23.7 453.8,23.4 454.8,23.2 455.8,23 456.8,22.8 457.8,22.5 458.8,22.3 459.8,22.1 460.8,21.9 461.8,21.6 462.8,21.4 463.8,21.2 464.8,21 465.8,20.8 466.8,20.6 467.8,20.4 468.8,20.1 469.8,19.9 470.8,19.7 471.8,19.5 472.8,19.3 473.8,19.1 474.8,18.9 475.8,18.7 476.8,18.5 477.8,18.3 478.8,18.1 479.8,17.9 480.8,17.7 481.8,17.5 482.8,17.3 483.8,17.1 484.8,16.9 485.8,16.7 486.8,16.5 487.8,16.3 488.8,16.2 489.8,16 490.8,15.8 491.8,15.6 492.8,15.4 493.8,15.2 494.8,15 495.8,14.9 496.8,14.7 497.8,14.5 498.8,14.3 499.8,14.1 500.8,14 501.8,13.8 502.8,13.6 503.8,13.4 504.8,13.3 505.8,13.1 506.8,12.9 507.8,12.7 508.8,12.6 509.8,12.4 510.9,12.2 511.9,12.1 512.9,11.9 513.9,11.7 514.9,11.6 515.9,11.4 516.9,11.2 517.9,11.1 518.9,10.9 519.9,10.7 520.9,10.6 521.9,10.4 522.9,10.3 523.9,10.1 524.9,9.9 525.9,9.8 526.9,9.6 527.9,9.5 528.9,9.3 529.9,9.2 530.9,9 531.9,8.9 532.9,8.7 533.9,8.6 534.9,8.4 535.9,8.3 536.9,8.1 537.9,8 538.9,7.8 539.9,7.7 540.9,7.5 541.9,7.4 542.9,7.2 543.9,7.1 544.9,6.9 545.9,6.8 546.9,6.7 547.9,6.5 548.9,6.4 549.9,6.2 550.9,6.1 551.9,6 552.9,5.8 553.9,5.7 554.9,5.5 555.9,5.4 556.9,5.3 557.9,5.1 558.9,5 559.9,4.9 560.9,4.7 561.9,4.6 562.9,4.5 563.9,4.3 564.9,4.2 565.9,4.1 566.9,4 567.9,3.8 568.9,3.7 569.9,3.6 571,3.4 572,3.3 573,3.2 574,3.1 575,2.9 576,2.8 577,2.7 578,2.6 579,2.4 580,2.3 581,2.2 582,2.1 583,2 584,1.8 585,1.7 586,1.6 587,1.5 588,1.4 589,1.3 590,1.1 591,1 592,0.9 593,0.8 594,0.7 595,0.6 596,0.4 597,0.3 598,0.2 599,0.1 600,0" transform="translate(0, 0) rotate(0) scale(1 1)"></polyline><polyline stroke="blue" fill="none" points="0,600 1,599 2,597.9 3,596.9 4,595.9 5,594.9 6,593.8 7,592.8 8,591.8 9,590.8 10,589.7 11,588.7 12,587.7 13,586.7 14,585.7 15,584.6 16,583.6 17,582.6 18,581.5 19,580.4 20,579.4 21,578.3 22,577.2 23,576.1 24,575.1 25,574 26,572.9 27,571.9 28,570.8 29,569.8 30.1,568.7 31.1,567.6 32.1,566.6 33.1,565.4 34.1,564.3 35.1,563.2 36.1,562.1 37.1,561 38.1,559.8 39.1,558.7 40.1,557.6 41.1,556.5 42.1,555.4 43.1,554.3 44.1,553.2 45.1,552.1 46.1,550.9 47.1,549.8 48.1,548.6 49.1,547.4 50.1,546.3 51.1,545.1 52.1,543.9 53.1,542.8 54.1,541.6 55.1,540.4 56.1,539.3 57.1,538.1 58.1,536.9 59.1,535.8 60.1,534.6 61.1,533.4 62.1,532.2 63.1,530.9 64.1,529.7 65.1,528.5 66.1,527.3 67.1,526 68.1,524.8 69.1,523.6 70.1,522.4 71.1,521.2 72.1,520 73.1,518.7 74.1,517.5 75.1,516.2 76.1,514.9 77.1,513.6 78.1,512.3 79.1,511 80.1,509.7 81.1,508.5 82.1,507.2 83.1,505.9 84.1,504.6 85.1,503.4 86.1,502 87.1,500.7 88.1,499.3 89.1,498 90.2,496.6 91.2,495.3 92.2,493.9 93.2,492.6 94.2,491.2 95.2,489.9 96.2,488.6 97.2,487.2 98.2,485.8 99.2,484.3 100.2,482.9 101.2,481.5 102.2,480.1 103.2,478.7 104.2,477.3 105.2,475.9 106.2,474.5 107.2,473 108.2,471.5 109.2,470.1 110.2,468.6 111.2,467.1 112.2,465.6 113.2,464.1 114.2,462.6 115.2,461.1 116.2,459.7 117.2,458.2 118.2,456.6 119.2,455 120.2,453.4 121.2,451.9 122.2,450.3 123.2,448.7 124.2,447.2 125.2,445.6 126.2,444.1 127.2,442.4 128.2,440.8 129.2,439.1 130.2,437.5 131.2,435.8 132.2,434.2 133.2,432.5 134.2,430.9 135.2,429.2 136.2,427.4 137.2,425.7 138.2,424 139.2,422.2 140.2,420.5 141.2,418.7 142.2,417 143.2,415.2 144.2,413.4 145.2,411.5 146.2,409.7 147.2,407.9 148.2,406 149.2,404.2 150.3,402.4 151.3,400.5 152.3,398.5 153.3,396.6 154.3,394.6 155.3,392.7 156.3,390.8 157.3,389 158.3,386.8 159.3,384.7 160.3,382.7 161.3,380.6 162.3,378.6 163.3,376.6 164.3,374.5 165.3,372.3 166.3,370.1 167.3,368 168.3,365.8 169.3,363.7 170.3,361.4 171.3,359.2 172.3,356.9 173.3,354.6 174.3,352.3 175.3,350.1 176.3,347.7 177.3,345.3 178.3,342.9 179.3,340.5 180.3,338.1 181.3,335.6 182.3,333.1 183.3,330.5 184.3,328 185.3,325.4 186.3,322.9 187.3,320.2 188.3,317.6 189.3,315 190.3,312.3 191.3,309.5 192.3,306.8 193.3,304 194.3,301.3 195.3,298.4 196.3,295.5 197.3,292.6 198.3,289.8 199.3,286.8 200.3,283.8 201.3,280.9 202.3,277.9 203.3,274.8 204.3,271.8 205.3,268.7 206.3,265.6 207.3,262.5 208.3,259.4 209.3,256.3 210.4,253.2 211.4,250.1 212.4,246.9 213.4,243.8 214.4,240.6 215.4,237.5 216.4,234.4 217.4,231.3 218.4,228.2 219.4,225.1 220.4,222 221.4,219 222.4,215.9 223.4,213 224.4,210.1 225.4,207.1 226.4,204.3 227.4,201.4 228.4,198.6 229.4,195.8 230.4,193.1 231.4,190.5 232.4,187.8 233.4,185.2 234.4,182.7 235.4,180.2 236.4,177.7 237.4,175.4 238.4,173 239.4,170.7 240.4,168.4 241.4,166.2 242.4,164.1 243.4,161.9 244.4,159.8 245.4,157.8 246.4,155.8 247.4,153.8 248.4,151.9 249.4,150 250.4,148.2 251.4,146.4 252.4,144.5 253.4,142.9 254.4,141.2 255.4,139.5 256.4,137.8 257.4,136.2 258.4,134.7 259.4,133.2 260.4,131.6 261.4,130.1 262.4,128.6 263.4,127.2 264.4,125.9 265.4,124.5 266.4,123.1 267.4,121.7 268.4,120.4 269.4,119.2 270.5,117.9 271.5,116.7 272.5,115.4 273.5,114.2 274.5,113 275.5,111.9 276.5,110.8 277.5,109.7 278.5,108.5 279.5,107.4 280.5,106.3 281.5,105.3 282.5,104.3 283.5,103.3 284.5,102.2 285.5,101.2 286.5,100.2 287.5,99.3 288.5,98.3 289.5,97.4 290.5,96.5 291.5,95.6 292.5,94.7 293.5,93.8 294.5,92.9 295.5,92 296.5,91.2 297.5,90.4 298.5,89.5 299.5,88.7 300.5,87.9 301.5,87.1 302.5,86.3 303.5,85.5 304.5,84.8 305.5,84 306.5,83.3 307.5,82.5 308.5,81.8 309.5,81 310.5,80.3 311.5,79.6 312.5,78.9 313.5,78.3 314.5,77.6 315.5,76.9 316.5,76.2 317.5,75.6 318.5,74.9 319.5,74.2 320.5,73.6 321.5,73 322.5,72.4 323.5,71.8 324.5,71.2 325.5,70.6 326.5,70 327.5,69.3 328.5,68.7 329.5,68.2 330.6,67.6 331.6,67 332.6,66.5 333.6,65.9 334.6,65.4 335.6,64.8 336.6,64.3 337.6,63.7 338.6,63.2 339.6,62.7 340.6,62.2 341.6,61.7 342.6,61.2 343.6,60.7 344.6,60.2 345.6,59.7 346.6,59.2 347.6,58.7 348.6,58.2 349.6,57.7 350.6,57.2 351.6,56.7 352.6,56.3 353.6,55.8 354.6,55.4 355.6,54.9 356.6,54.5 357.6,54 358.6,53.6 359.6,53.1 360.6,52.7 361.6,52.2 362.6,51.8 363.6,51.4 364.6,51 365.6,50.6 366.6,50.2 367.6,49.8 368.6,49.4 369.6,48.9 370.6,48.5 371.6,48.1 372.6,47.7 373.6,47.3 374.6,46.9 375.6,46.6 376.6,46.2 377.6,45.8 378.6,45.4 379.6,45.1 380.6,44.7 381.6,44.3 382.6,44 383.6,43.6 384.6,43.2 385.6,42.9 386.6,42.5 387.6,42.1 388.6,41.8 389.6,41.5 390.7,41.1 391.7,40.8 392.7,40.4 393.7,40.1 394.7,39.8 395.7,39.4 396.7,39.1 397.7,38.8 398.7,38.5 399.7,38.1 400.7,37.8 401.7,37.5 402.7,37.1 403.7,36.8 404.7,36.5 405.7,36.2 406.7,35.9 407.7,35.6 408.7,35.3 409.7,35 410.7,34.7 411.7,34.4 412.7,34.1 413.7,33.8 414.7,33.5 415.7,33.2 416.7,32.9 417.7,32.6 418.7,32.4 419.7,32.1 420.7,31.8 421.7,31.5 422.7,31.3 423.7,31 424.7,30.7 425.7,30.4 426.7,30.2 427.7,29.9 428.7,29.6 429.7,29.4 430.7,29.1 431.7,28.8 432.7,28.6 433.7,28.3 434.7,28 435.7,27.8 436.7,27.5 437.7,27.3 438.7,27.1 439.7,26.8 440.7,26.6 441.7,26.3 442.7,26.1 443.7,25.8 444.7,25.6 445.7,25.3 446.7,25.1 447.7,24.9 448.7,24.6 449.7,24.4 450.8,24.1 451.8,23.9 452.8,23.7 453.8,23.5 454.8,23.2 455.8,23 456.8,22.8 457.8,22.6 458.8,22.3 459.8,22.1 460.8,21.9 461.8,21.7 462.8,21.5 463.8,21.2 464.8,21 465.8,20.8 466.8,20.6 467.8,20.4 468.8,20.1 469.8,19.9 470.8,19.7 471.8,19.5 472.8,19.3 473.8,19.1 474.8,18.9 475.8,18.7 476.8,18.5 477.8,18.3 478.8,18.1 479.8,17.9 480.8,17.7 481.8,17.5 482.8,17.3 483.8,17.1 484.8,16.9 485.8,16.7 486.8,16.5 487.8,16.3 488.8,16.2 489.8,16 490.8,15.8 491.8,15.6 492.8,15.4 493.8,15.2 494.8,15.1 495.8,14.9 496.8,14.7 497.8,14.5 498.8,14.3 499.8,14.2 500.8,14 501.8,13.8 502.8,13.6 503.8,13.4 504.8,13.3 505.8,13.1 506.8,12.9 507.8,12.7 508.8,12.6 509.8,12.4 510.9,12.2 511.9,12.1 512.9,11.9 513.9,11.7 514.9,11.6 515.9,11.4 516.9,11.3 517.9,11.1 518.9,10.9 519.9,10.8 520.9,10.6 521.9,10.4 522.9,10.3 523.9,10.1 524.9,10 525.9,9.8 526.9,9.6 527.9,9.5 528.9,9.3 529.9,9.2 530.9,9 531.9,8.9 532.9,8.7 533.9,8.6 534.9,8.4 535.9,8.3 536.9,8.1 537.9,8 538.9,7.8 539.9,7.7 540.9,7.5 541.9,7.4 542.9,7.3 543.9,7.1 544.9,7 545.9,6.8 546.9,6.7 547.9,6.5 548.9,6.4 549.9,6.2 550.9,6.1 551.9,6 552.9,5.8 553.9,5.7 554.9,5.6 555.9,5.4 556.9,5.3 557.9,5.2 558.9,5 559.9,4.9 560.9,4.8 561.9,4.6 562.9,4.5 563.9,4.4 564.9,4.2 565.9,4.1 566.9,4 567.9,3.8 568.9,3.7 569.9,3.6 571,3.5 572,3.3 573,3.2 574,3.1 575,2.9 576,2.8 577,2.7 578,2.6 579,2.5 580,2.3 581,2.2 582,2.1 583,2 584,1.9 585,1.7 586,1.6 587,1.5 588,1.4 589,1.3 590,1.2 591,1 592,0.9 593,0.8 594,0.7 595,0.6 596,0.5 597,0.3 598,0.2 599,0.1 600,0" transform="translate(0, 0) rotate(0) scale(1 1)"></polyline><circle fill="blue" r="2" transform="translate(31.862, 566.776) rotate(0) scale(1 1)"></circle><circle fill="blue" r="2" transform="translate(60.132, 534.595) rotate(0) scale(1 1)"></circle><circle fill="blue" r="2" transform="translate(85.084, 503.447) rotate(0) scale(1 1)"></circle><circle fill="blue" r="2" transform="translate(106.992, 473.32) rotate(0) scale(1 1)"></circle><circle fill="blue" r="2" transform="translate(126.132, 444.205) rotate(0) scale(1 1)"></circle><circle fill="blue" r="2" transform="translate(142.778, 416.089) rotate(0) scale(1 1)"></circle><circle fill="blue" r="2" transform="translate(157.205, 388.962) rotate(0) scale(1 1)"></circle><circle fill="blue" r="2" transform="translate(169.687, 362.813) rotate(0) scale(1 1)"></circle><circle fill="blue" r="2" transform="translate(180.5, 337.63) rotate(0) scale(1 1)"></circle><circle fill="blue" r="2" transform="translate(189.917, 313.403) rotate(0) scale(1 1)"></circle><circle fill="blue" r="2" transform="translate(198.214, 290.121) rotate(0) scale(1 1)"></circle><circle fill="blue" r="2" transform="translate(205.664, 267.773) rotate(0) scale(1 1)"></circle><circle fill="blue" r="2" transform="translate(212.543, 246.348) rotate(0) scale(1 1)"></circle><circle fill="blue" r="2" transform="translate(219.126, 225.835) rotate(0) scale(1 1)"></circle><circle fill="blue" r="2" transform="translate(225.687, 206.223) rotate(0) scale(1 1)"></circle><circle fill="blue" r="2" transform="translate(232.5, 187.5) rotate(0) scale(1 1)"></circle><circle fill="blue" r="2" transform="translate(239.841, 169.656) rotate(0) scale(1 1)"></circle><circle fill="blue" r="2" transform="translate(247.983, 152.681) rotate(0) scale(1 1)"></circle><circle fill="blue" r="2" transform="translate(257.203, 136.562) rotate(0) scale(1 1)"></circle><circle fill="blue" r="2" transform="translate(267.773, 121.289) rotate(0) scale(1 1)"></circle><circle fill="blue" r="2" transform="translate(279.97, 106.851) rotate(0) scale(1 1)"></circle><circle fill="blue" r="2" transform="translate(294.067, 93.237) rotate(0) scale(1 1)"></circle><circle fill="blue" r="2" transform="translate(310.34, 80.436) rotate(0) scale(1 1)"></circle><circle fill="blue" r="2" transform="translate(329.063, 68.437) rotate(0) scale(1 1)"></circle><circle fill="blue" r="2" transform="translate(350.51, 57.23) rotate(0) scale(1 1)"></circle><circle fill="blue" r="2" transform="translate(374.956, 46.802) rotate(0) scale(1 1)"></circle><circle fill="blue" r="2" transform="translate(402.676, 37.143) rotate(0) scale(1 1)"></circle><circle fill="blue" r="2" transform="translate(433.945, 28.242) rotate(0) scale(1 1)"></circle><circle fill="blue" r="2" transform="translate(469.037, 20.089) rotate(0) scale(1 1)"></circle><circle fill="blue" r="2" transform="translate(508.228, 12.671) rotate(0) scale(1 1)"></circle><circle fill="blue" r="2" transform="translate(551.79, 5.978) rotate(0) scale(1 1)"></circle><circle stroke="#c9f" fill="#c9f3" r="8" transform="translate(360, 240) rotate(0) scale(1 1)"></circle><circle stroke="#c9f" fill="#c9f3" r="8" transform="translate(60, 60) rotate(0) scale(1 1)"></circle><text text-anchor="end" font-size="16px" style="user-select: all;" transform="translate(590, 590) rotate(0) scale(1 1)">0.6, 0.6, 0.1, 0.9</text></g></svg>